<svg width="24" height="25" viewBox="0 0 24 25" fill="none" xmlns="http://www.w3.org/2000/svg">
<path d="M9 11.5V20.5M9 11.5H4.59961C4.03956 11.5 3.75981 11.5 3.5459 11.609C3.35774 11.7049 3.20487 11.8577 3.10899 12.0459C3 12.2598 3 12.54 3 13.1001V20.5H9M9 11.5V6.1001C9 5.54004 9 5.25981 9.10899 5.0459C9.20487 4.85774 9.35774 4.70487 9.5459 4.60899C9.75981 4.5 10.0396 4.5 10.5996 4.5H13.3996C13.9597 4.5 14.2403 4.5 14.4542 4.60899C14.6423 4.70487 14.7948 4.85774 14.8906 5.0459C14.9996 5.25981 15 5.54005 15 6.1001V8.5M9 20.5H15M15 20.5L21 20.5001V10.1001C21 9.54005 20.9996 9.25981 20.8906 9.0459C20.7948 8.85774 20.6429 8.70487 20.4548 8.60899C20.2409 8.5 19.9601 8.5 19.4 8.5H15M15 20.5V8.5" stroke="#FAFAFB" stroke-width="2" stroke-linecap="round" stroke-linejoin="round"/>
</svg>
