<svg width="32" height="31" viewBox="0 0 32 31" fill="none" xmlns="http://www.w3.org/2000/svg">
<path d="M19.3333 25.1667H31M1 25.1667H4.33333M4.33333 25.1667C4.33333 27.4679 6.19881 29.3333 8.5 29.3333C10.8012 29.3333 12.6667 27.4679 12.6667 25.1667C12.6667 22.8655 10.8012 21 8.5 21C6.19881 21 4.33333 22.8655 4.33333 25.1667ZM29.3333 15.1667H31M1 15.1667H12.6667M17.6667 5.16667H31M17.6667 5.16667C17.6667 2.86548 15.8012 1 13.5 1C11.1988 1 9.33333 2.86548 9.33333 5.16667C9.33333 7.46785 11.1988 9.33333 13.5 9.33333C15.8012 9.33333 17.6667 7.46785 17.6667 5.16667ZM1 5.16667H2.66667M23.5 19.3333C21.1988 19.3333 19.3333 17.4679 19.3333 15.1667C19.3333 12.8655 21.1988 11 23.5 11C25.8012 11 27.6667 12.8655 27.6667 15.1667C27.6667 17.4679 25.8012 19.3333 23.5 19.3333Z" stroke="black" stroke-width="2" stroke-linecap="round" stroke-linejoin="round"/>
</svg>
