<svg width="32" height="32" viewBox="0 0 32 32" fill="000000" xmlns="http://www.w3.org/2000/svg">
<path d="M19.3333 25.9997H31M1 25.9997H4.33333M4.33333 25.9997C4.33333 28.3009 6.19881 30.1663 8.5 30.1663C10.8012 30.1663 12.6667 28.3009 12.6667 25.9997C12.6667 23.6985 10.8012 21.833 8.5 21.833C6.19881 21.833 4.33333 23.6985 4.33333 25.9997ZM29.3333 15.9997H31M1 15.9997H12.6667M17.6667 5.99967H31M17.6667 5.99967C17.6667 3.69849 15.8012 1.83301 13.5 1.83301C11.1988 1.83301 9.33333 3.69849 9.33333 5.99967C9.33333 8.30086 11.1988 10.1663 13.5 10.1663C15.8012 10.1663 17.6667 8.30086 17.6667 5.99967ZM1 5.99967H2.66667M23.5 20.1663C21.1988 20.1663 19.3333 18.3009 19.3333 15.9997C19.3333 13.6985 21.1988 11.833 23.5 11.833C25.8012 11.833 27.6667 13.6985 27.6667 15.9997C27.6667 18.3009 25.8012 20.1663 23.5 20.1663Z" stroke="white" stroke-width="2" stroke-linecap="round" stroke-linejoin="round"/>
</svg>
