<svg width="20" height="18" viewBox="0 0 20 18" fill="none" xmlns="http://www.w3.org/2000/svg">
<path d="M15 16.5C15 14.8431 12.7614 13.5 10 13.5C7.23858 13.5 5 14.8431 5 16.5M19 13.5004C19 12.2702 17.7659 11.2129 16 10.75M1 13.5004C1 12.2702 2.2341 11.2129 4 10.75M16 6.73611C16.6137 6.18679 17 5.3885 17 4.5C17 2.84315 15.6569 1.5 14 1.5C13.2316 1.5 12.5308 1.78885 12 2.26389M4 6.73611C3.38625 6.18679 3 5.3885 3 4.5C3 2.84315 4.34315 1.5 6 1.5C6.76835 1.5 7.46924 1.78885 8 2.26389M10 10.5C8.34315 10.5 7 9.15685 7 7.5C7 5.84315 8.34315 4.5 10 4.5C11.6569 4.5 13 5.84315 13 7.5C13 9.15685 11.6569 10.5 10 10.5Z" stroke="#D1D1D1" stroke-width="2" stroke-linecap="round" stroke-linejoin="round"/>
</svg>
