<svg width="40" height="40" viewBox="0 0 40 40" fill="none" xmlns="http://www.w3.org/2000/svg">
<path d="M23.3333 30.0002H35M5 30.0002H8.33333M8.33333 30.0002C8.33333 32.3013 10.1988 34.1668 12.5 34.1668C14.8012 34.1668 16.6667 32.3013 16.6667 30.0002C16.6667 27.699 14.8012 25.8335 12.5 25.8335C10.1988 25.8335 8.33333 27.699 8.33333 30.0002ZM33.3333 20.0002H35M5 20.0002H16.6667M21.6667 10.0002H35M21.6667 10.0002C21.6667 7.69898 19.8012 5.8335 17.5 5.8335C15.1988 5.8335 13.3333 7.69898 13.3333 10.0002C13.3333 12.3013 15.1988 14.1668 17.5 14.1668C19.8012 14.1668 21.6667 12.3013 21.6667 10.0002ZM5 10.0002H6.66667M27.5 24.1668C25.1988 24.1668 23.3333 22.3013 23.3333 20.0002C23.3333 17.699 25.1988 15.8335 27.5 15.8335C29.8012 15.8335 31.6667 17.699 31.6667 20.0002C31.6667 22.3013 29.8012 24.1668 27.5 24.1668Z" stroke="#FAFAFB" stroke-width="2" stroke-linecap="round" stroke-linejoin="round"/>
</svg>
