<svg width="18" height="19" viewBox="0 0 18 19" fill="none" xmlns="http://www.w3.org/2000/svg">
<path d="M9 12.5L12 9.5M12 9.5L9 6.5M12 9.5H1M6 4.74859V4.7002C6 3.58009 6 3.01962 6.21799 2.5918C6.40973 2.21547 6.71547 1.90973 7.0918 1.71799C7.51962 1.5 8.08009 1.5 9.2002 1.5H13.8002C14.9203 1.5 15.4796 1.5 15.9074 1.71799C16.2837 1.90973 16.5905 2.21547 16.7822 2.5918C17 3.0192 17 3.57899 17 4.69691V14.3036C17 15.4215 17 15.9805 16.7822 16.4079C16.5905 16.7842 16.2837 17.0905 15.9074 17.2822C15.48 17.5 14.921 17.5 13.8031 17.5H9.19691C8.07899 17.5 7.5192 17.5 7.0918 17.2822C6.71547 17.0905 6.40973 16.7839 6.21799 16.4076C6 15.9798 6 15.4201 6 14.3V14.25" stroke="#080F25" stroke-width="2" stroke-linecap="round" stroke-linejoin="round"/>
</svg>
