<svg width="8" height="27" viewBox="0 0 8 27" fill="none" xmlns="http://www.w3.org/2000/svg">
<path d="M4.00008 6.83317C5.83342 6.83317 7.33342 5.33317 7.33342 3.49984C7.33342 1.6665 5.83342 0.166504 4.00008 0.166504C2.16675 0.166504 0.666748 1.6665 0.666748 3.49984C0.666748 5.33317 2.16675 6.83317 4.00008 6.83317ZM4.00008 10.1665C2.16675 10.1665 0.666748 11.6665 0.666748 13.4998C0.666748 15.3332 2.16675 16.8332 4.00008 16.8332C5.83342 16.8332 7.33342 15.3332 7.33342 13.4998C7.33342 11.6665 5.83342 10.1665 4.00008 10.1665ZM4.00008 20.1665C2.16675 20.1665 0.666748 21.6665 0.666748 23.4998C0.666748 25.3332 2.16675 26.8332 4.00008 26.8332C5.83342 26.8332 7.33342 25.3332 7.33342 23.4998C7.33342 21.6665 5.83342 20.1665 4.00008 20.1665Z" fill="#080F25"/>
</svg>
