<svg width="24" height="25" viewBox="0 0 24 25" fill="none" xmlns="http://www.w3.org/2000/svg">
<path d="M20.3499 9.42293L19.9837 9.2192C19.9269 9.18756 19.8989 9.17169 19.8714 9.15524C19.5983 8.99165 19.3682 8.76564 19.2002 8.49523C19.1833 8.46802 19.1674 8.43949 19.1348 8.3831C19.1023 8.32677 19.0858 8.29823 19.0706 8.26998C18.92 7.98866 18.8385 7.67515 18.8336 7.35606C18.8331 7.32398 18.8332 7.29121 18.8343 7.22604L18.8415 6.80078C18.8529 6.12025 18.8587 5.77894 18.763 5.47262C18.6781 5.20053 18.536 4.94993 18.3462 4.73725C18.1317 4.49685 17.8347 4.32534 17.2402 3.98276L16.7464 3.6982C16.1536 3.35658 15.8571 3.18571 15.5423 3.12057C15.2639 3.06294 14.9765 3.06561 14.6991 3.12789C14.3859 3.19819 14.0931 3.37351 13.5079 3.72396L13.5045 3.72555L13.1507 3.93741C13.0948 3.97091 13.0665 3.98779 13.0384 4.00338C12.7601 4.1581 12.4495 4.24365 12.1312 4.25387C12.0992 4.2549 12.0665 4.2549 12.0013 4.2549C11.9365 4.2549 11.9024 4.2549 11.8704 4.25387C11.5515 4.24361 11.2402 4.15759 10.9615 4.00224C10.9334 3.98658 10.9056 3.96956 10.8496 3.9359L10.4935 3.72213C9.90422 3.36836 9.60915 3.19121 9.29427 3.12057C9.0157 3.05807 8.72737 3.05634 8.44791 3.11471C8.13236 3.18062 7.83577 3.35276 7.24258 3.69703L7.23994 3.6982L6.75228 3.98124L6.74688 3.98454C6.15904 4.32572 5.86441 4.49672 5.6517 4.73614C5.46294 4.9486 5.32185 5.19881 5.2374 5.47018C5.14194 5.77691 5.14703 6.11896 5.15853 6.8027L5.16568 7.22736C5.16676 7.29166 5.16864 7.32362 5.16817 7.35525C5.16343 7.67499 5.08086 7.98914 4.92974 8.27096C4.9148 8.29883 4.8987 8.3267 4.86654 8.38237C4.83436 8.43809 4.81877 8.46579 4.80209 8.49268C4.63336 8.76452 4.40214 8.99186 4.12733 9.15572C4.10015 9.17193 4.0715 9.18752 4.01521 9.21871L3.65365 9.41908C3.05208 9.75245 2.75137 9.91928 2.53256 10.1567C2.33898 10.3667 2.19275 10.6158 2.10349 10.8872C2.00259 11.1939 2.00267 11.5378 2.00424 12.2255L2.00551 12.7877C2.00706 13.4708 2.00919 13.8122 2.11032 14.1168C2.19979 14.3863 2.34495 14.634 2.53744 14.8427C2.75502 15.0787 3.05274 15.2445 3.64974 15.5766L4.00808 15.776C4.06907 15.8099 4.09976 15.8266 4.12917 15.8444C4.40148 16.0083 4.63089 16.235 4.79818 16.5053C4.81625 16.5345 4.8336 16.5648 4.8683 16.6255C4.90256 16.6853 4.92009 16.7152 4.93594 16.7452C5.08261 17.0229 5.16114 17.3315 5.16649 17.6455C5.16707 17.6794 5.16658 17.7137 5.16541 17.7827L5.15853 18.1902C5.14695 18.8763 5.1419 19.2197 5.23792 19.5273C5.32287 19.7994 5.46484 20.05 5.65463 20.2627C5.86915 20.5031 6.16655 20.6745 6.76107 21.0171L7.25478 21.3015C7.84763 21.6432 8.14395 21.8138 8.45869 21.879C8.73714 21.9366 9.02464 21.9344 9.30209 21.8721C9.61567 21.8017 9.90948 21.6258 10.4964 21.2743L10.8502 21.0625C10.9062 21.0289 10.9346 21.0121 10.9626 20.9965C11.2409 20.8418 11.5512 20.7558 11.8695 20.7456C11.9015 20.7446 11.9342 20.7446 11.9994 20.7446C12.0648 20.7446 12.0974 20.7446 12.1295 20.7456C12.4484 20.7559 12.7607 20.8422 13.0394 20.9975C13.0639 21.0112 13.0885 21.026 13.1316 21.0519L13.5078 21.2777C14.0971 21.6315 14.3916 21.8081 14.7065 21.8788C14.985 21.9413 15.2736 21.9438 15.5531 21.8855C15.8685 21.8196 16.1657 21.6471 16.7586 21.303L17.2536 21.0157C17.8418 20.6743 18.1367 20.5031 18.3495 20.2636C18.5383 20.0512 18.6796 19.8011 18.764 19.5297C18.8588 19.2252 18.8531 18.8858 18.8417 18.2119L18.8343 17.7724C18.8332 17.7081 18.8331 17.6761 18.8336 17.6445C18.8383 17.3247 18.9195 17.0104 19.0706 16.7286C19.0856 16.7007 19.1018 16.6726 19.1338 16.6171C19.166 16.5615 19.1827 16.5337 19.1994 16.5068C19.3681 16.2349 19.5995 16.0074 19.8744 15.8435C19.9012 15.8275 19.9289 15.8122 19.9838 15.7818L19.9857 15.7809L20.3472 15.5805C20.9488 15.2472 21.2501 15.0801 21.4689 14.8427C21.6625 14.6327 21.8085 14.3839 21.8978 14.1126C21.9981 13.8077 21.9973 13.4658 21.9958 12.7861L21.9945 12.2119C21.9929 11.5287 21.9921 11.1874 21.891 10.8828C21.8015 10.6133 21.6555 10.3656 21.463 10.1568C21.2457 9.92111 20.9475 9.75526 20.3517 9.42378L20.3499 9.42293Z" stroke="#D1D1D1" stroke-width="2" stroke-linecap="round" stroke-linejoin="round"/>
<path d="M8.00033 12.5C8.00033 14.7091 9.79119 16.5 12.0003 16.5C14.2095 16.5 16.0003 14.7091 16.0003 12.5C16.0003 10.2908 14.2095 8.49996 12.0003 8.49996C9.79119 8.49996 8.00033 10.2908 8.00033 12.5Z" stroke="#D1D1D1" stroke-width="2" stroke-linecap="round" stroke-linejoin="round"/>
</svg>
